<svg xmlns="http://www.w3.org/2000/svg" width="13.135" height="12.441" viewBox="0 0 13.135 12.441">
  <path id="Icon_awesome-phone-volume" data-name="Icon awesome-phone-volume" d="M3.329,12.319C-1.113,9.163-1.107,4.051,3.329.9A.776.776,0,0,1,4.057.841l2.217.984c.241.107.34.322.234.509L5.4,4.3a.642.642,0,0,1-.6.26L2.886,4.428a4.718,4.718,0,0,0,0,4.362L4.8,8.655a.642.642,0,0,1,.6.26l1.109,1.969c.106.188.007.4-.234.509l-2.217.984a.776.776,0,0,1-.727-.059Zm5.124-10a1.181,1.181,0,0,1,0,1.581.519.519,0,0,1-.64.063l-.2-.139a.235.235,0,0,1-.077-.35.585.585,0,0,0,0-.728.235.235,0,0,1,.077-.35l.2-.139a.519.519,0,0,1,.64.063ZM11.593.1a3.7,3.7,0,0,1,0,6.012.534.534,0,0,1-.6.023L10.794,6a.236.236,0,0,1-.032-.4,3.081,3.081,0,0,0,0-4.992.236.236,0,0,1,.032-.4l.2-.135a.534.534,0,0,1,.6.023ZM10.021,1.2a2.442,2.442,0,0,1,0,3.828.531.531,0,0,1-.611.032l-.2-.136a.234.234,0,0,1-.044-.387,1.828,1.828,0,0,0,0-2.846A.234.234,0,0,1,9.211,1.3l.2-.136a.531.531,0,0,1,.611.032Z" transform="translate(0 0)" fill="#252d30"/>
</svg>
